# xmcd CD database file
#
# Track frame offsets:
#	150
#	13686
#	27381
#	45620
#	64587
#	83472
#	103726
#	118633
#	129277
#	150027
#
# Disc length: 2189 seconds
#
# Revision: 0
# Processed by: cddbd v1.5.2PL0 Copyright (c) Steve Scherf et al.
# Submitted via: CDex 1.51
#
DISCID=6a088b0a
DTITLE=Various Artist - For Those About To Jazz - Vol.1  [CD 1]
DYEAR=2007
DGENRE=Jazz
TTITLE0=Mishka Adams - On Green Dolphin Street
TTITLE1=Mina Agoss - Ain't Misbehavein
TTITLE2=Stacey Kent - Comes Love
TTITLE3=Clare Teal - Calafornia Dreamin'
TTITLE4=Jamie Cullum - You And The Music
TTITLE5=Leee John - Sensuality
TTITLE6=Monica Vasconcelos - Arrastao
TTITLE7=Cormac Kenevey - Just A Day  (This Is Living)
TTITLE8=Jacqui Dankworth - Blue Moon
TTITLE9=Irene Kral - I Like You, You're Nice
EXTD=YEAR: 2007
EXTT0=
EXTT1=
EXTT2=
EXTT3=
EXTT4=
EXTT5=
EXTT6=
EXTT7=
EXTT8=
EXTT9=
PLAYORDER=
